# xmcd CD database file
#
# Track frame offsets:
#	187
#	20150
#	46577
#	64975
#	84582
#	103967
#	124815
#	149305
#	167890
#	186622
#	204292
#
# Disc length: 3004 seconds
#
# Revision: 16
# Processed by: cddbd v1.5.2PL0 Copyright (c) Steve Scherf et al.
# Submitted via: CDex 1.70beta3
#
DISCID=a30bba0b
DTITLE=シャ乱Q - シングル ベスト10 ★おまけつき★
DYEAR=1996
DGENRE=J-Pop
TTITLE0=18ヶ月
TTITLE1=ラーメン大好き小池さんの唄
TTITLE2=とってもメリーゴーランド
TTITLE3=友達はいますか
TTITLE4=上・京・物・語
TTITLE5=恋をするだけ無駄なんて
TTITLE6=シングルベット
TTITLE7=ズルい女
TTITLE8=空を見なよ
TTITLE9=My Babe 君が眠るまで
TTITLE10=いいわけ
EXTD=YEAR: 1996
EXTT0=
EXTT1=
EXTT2=
EXTT3=
EXTT4=
EXTT5=
EXTT6=
EXTT7=
EXTT8=
EXTT9=
EXTT10=
PLAYORDER=
